<?xml version="1.0" encoding="utf-8"?>
<!-- Generator: Adobe Illustrator 16.0.0, SVG Export Plug-In . SVG Version: 6.00 Build 0)  -->
<!DOCTYPE svg PUBLIC "-//W3C//DTD SVG 1.1//EN" "http://www.w3.org/Graphics/SVG/1.1/DTD/svg11.dtd">
<svg version="1.1" id="Layer_1" xmlns="http://www.w3.org/2000/svg" xmlns:xlink="http://www.w3.org/1999/xlink" x="0px" y="0px"
	 width="247.973px" height="87.043px" viewBox="0 0 247.973 87.043" enable-background="new 0 0 247.973 87.043"
	 xml:space="preserve">
<g>
	<defs>
		<rect id="SVGID_1_" y="0" width="247.973" height="87.043"/>
	</defs>
	<clipPath id="SVGID_2_">
		<use xlink:href="#SVGID_1_"  overflow="visible"/>
	</clipPath>
	<path clip-path="url(#SVGID_2_)" fill="#008A97" d="M218.553,53.063c-0.441-0.447-0.973-0.671-1.592-0.671
		c-0.637,0-1.174,0.224-1.615,0.671c-0.439,0.447-0.659,0.981-0.659,1.603v19.708c0,0.636,0.22,1.173,0.659,1.614
		c0.441,0.439,0.979,0.66,1.615,0.66c0.619,0,1.15-0.221,1.592-0.66c0.439-0.441,0.66-0.979,0.66-1.614V63.697
		c0-0.924,0.177-1.798,0.53-2.621c0.353-0.823,0.841-1.544,1.462-2.165c0.62-0.621,1.34-1.108,2.155-1.462
		c0.815-0.354,1.692-0.531,2.631-0.531c0.925,0,1.798,0.182,2.621,0.542c0.823,0.361,1.541,0.849,2.154,1.462
		c0.614,0.613,1.101,1.331,1.462,2.154s0.542,1.697,0.542,2.621v10.677c0,0.636,0.22,1.173,0.659,1.614
		c0.441,0.439,0.979,0.66,1.615,0.66c0.619,0,1.15-0.221,1.592-0.66c0.439-0.441,0.66-0.979,0.66-1.614V63.697
		c0-1.56-0.304-3.028-0.91-4.407s-1.43-2.578-2.469-3.595c-1.039-1.019-2.242-1.823-3.605-2.415
		c-1.365-0.592-2.805-0.888-4.321-0.888c-2.599,0-4.858,0.743-6.778,2.229C219.213,54.031,218.992,53.51,218.553,53.063
		 M207.82,75.988c0.439,0.439,0.979,0.66,1.613,0.66c0.621,0,1.152-0.221,1.592-0.66c0.439-0.441,0.661-0.971,0.661-1.592V64.52
		c0-3.351-1.185-6.208-3.552-8.576c-2.397-2.368-5.256-3.552-8.577-3.552c-3.349,0-6.208,1.184-8.576,3.552
		s-3.552,5.226-3.552,8.576c0,3.35,1.184,6.209,3.552,8.575c2.368,2.368,5.228,3.553,8.576,3.553c1.444,0,2.801-0.231,4.071-0.693
		s2.447-1.126,3.53-1.992v0.434C207.159,75.017,207.379,75.546,207.82,75.988 M202.525,57.525c0.923,0.403,1.729,0.953,2.414,1.646
		c0.686,0.693,1.227,1.498,1.625,2.414c0.396,0.917,0.595,1.896,0.595,2.936s-0.198,2.018-0.595,2.935
		c-0.398,0.917-0.939,1.721-1.625,2.414s-1.491,1.242-2.414,1.646c-0.925,0.404-1.914,0.606-2.968,0.606
		c-1.068,0-2.064-0.202-2.988-0.606s-1.726-0.949-2.403-1.636c-0.68-0.685-1.218-1.489-1.615-2.415
		c-0.396-0.923-0.594-1.904-0.594-2.944s0.197-2.021,0.594-2.945c0.397-0.924,0.936-1.729,1.615-2.415
		c0.678-0.686,1.479-1.231,2.403-1.635c0.924-0.404,1.92-0.607,2.988-0.607C200.611,56.917,201.601,57.121,202.525,57.525
		 M177.791,75.771c1.422-0.585,2.739-1.477,3.952-2.676c2.368-2.339,3.552-5.196,3.552-8.575c0-1.676-0.295-3.23-0.888-4.667
		c-0.592-1.438-1.479-2.74-2.664-3.909c-2.397-2.368-5.256-3.552-8.577-3.552c-3.349,0-6.207,1.184-8.576,3.552
		c-2.367,2.368-3.551,5.226-3.551,8.576v20.271c0,0.65,0.213,1.188,0.639,1.614s0.964,0.639,1.613,0.639
		c0.635,0,1.172-0.213,1.613-0.639c0.439-0.426,0.661-0.964,0.661-1.614V73.984c2.165,1.775,4.699,2.664,7.601,2.664
		C174.827,76.648,176.368,76.356,177.791,75.771 M166.16,61.575c0.397-0.924,0.936-1.729,1.614-2.415
		c0.678-0.686,1.479-1.231,2.403-1.635c0.925-0.404,1.921-0.607,2.988-0.607c1.055,0,2.043,0.203,2.969,0.607
		c0.923,0.403,1.728,0.953,2.414,1.646c0.686,0.693,1.227,1.498,1.625,2.414c0.396,0.917,0.595,1.896,0.595,2.936
		s-0.198,2.018-0.595,2.935c-0.398,0.917-0.939,1.721-1.625,2.414c-0.687,0.693-1.491,1.242-2.414,1.646
		c-0.926,0.404-1.914,0.606-2.969,0.606c-1.067,0-2.063-0.202-2.988-0.606c-0.924-0.404-1.726-0.949-2.403-1.636
		c-0.679-0.685-1.217-1.489-1.614-2.415c-0.396-0.923-0.595-1.904-0.595-2.944S165.764,62.499,166.16,61.575 M153.058,68.44
		c0.39,0.159,0.585,0.44,0.585,0.845c0,0.346-0.109,0.642-0.325,0.888c-1.256,1.299-2.917,1.949-4.981,1.949
		c-2.123,0-3.92-0.737-5.393-2.209c-0.275-0.26-0.578-0.531-0.91-0.812c-0.332-0.282-0.736-0.424-1.213-0.424
		c-0.648,0-1.188,0.214-1.613,0.64s-0.639,0.964-0.639,1.613c0,0.52,0.159,0.989,0.477,1.407c2.556,2.874,5.652,4.311,9.291,4.311
		c1.184,0,2.36-0.166,3.53-0.498c1.169-0.332,2.224-0.812,3.162-1.44s1.7-1.383,2.285-2.263c0.584-0.881,0.877-1.877,0.877-2.989
		c0-1.502-0.549-2.808-1.646-3.92h0.021c-0.491-0.52-1.443-1.054-2.859-1.603L143.571,60.6c-0.376-0.145-0.563-0.42-0.563-0.823
		c0-0.404,0.115-0.723,0.347-0.953c1.241-1.271,2.903-1.906,4.981-1.906c2.108,0,3.898,0.737,5.371,2.209
		c0.303,0.303,0.617,0.585,0.942,0.845c0.325,0.261,0.718,0.391,1.181,0.391c0.649,0,1.188-0.213,1.613-0.639
		c0.425-0.427,0.639-0.965,0.639-1.614c0-0.534-0.152-0.988-0.455-1.364c-2.584-2.902-5.682-4.353-9.291-4.353
		c-1.184,0-2.365,0.17-3.541,0.509c-1.177,0.339-2.234,0.818-3.172,1.439c-0.939,0.621-1.701,1.375-2.285,2.264
		c-0.586,0.888-0.877,1.881-0.877,2.978c0,1.502,0.547,2.809,1.646,3.92h-0.022c0.549,0.549,1.502,1.083,2.859,1.604L153.058,68.44z
		"/>
	<path clip-path="url(#SVGID_2_)" fill="#F26527" d="M128.205,70.389c-0.679,0.577-1.416,1.011-2.209,1.299
		c-0.795,0.289-1.667,0.433-2.621,0.433c-0.838,0-1.643-0.13-2.415-0.389c-0.773-0.26-1.48-0.625-2.122-1.094
		c-0.643-0.469-1.202-1.032-1.679-1.689c-0.476-0.657-0.837-1.383-1.083-2.177h17.153c0.635,0,1.173-0.213,1.612-0.639
		c0.441-0.427,0.662-0.964,0.662-1.613c0-1.675-0.297-3.231-0.889-4.668s-1.479-2.739-2.664-3.909
		c-2.396-2.368-5.255-3.552-8.576-3.552c-3.35,0-6.209,1.184-8.577,3.552c-2.368,2.368-3.551,5.228-3.551,8.577
		c0,3.349,1.183,6.208,3.551,8.576c2.368,2.368,5.227,3.552,8.577,3.552c3.046,0,5.688-0.982,7.925-2.946
		c0.435-0.446,0.65-0.987,0.65-1.624c0-0.649-0.213-1.187-0.639-1.612c-0.426-0.427-0.963-0.64-1.613-0.64
		C129.137,69.84,128.639,70.028,128.205,70.389 M116.077,62.267c0.231-0.794,0.585-1.52,1.061-2.176
		c0.477-0.657,1.04-1.221,1.69-1.69c0.649-0.469,1.364-0.833,2.144-1.093c0.78-0.26,1.581-0.391,2.404-0.391
		c0.823,0,1.62,0.131,2.393,0.391c0.772,0.26,1.479,0.624,2.122,1.093c0.643,0.47,1.206,1.033,1.689,1.69
		c0.483,0.656,0.849,1.382,1.094,2.176H116.077z M103.699,76.561c0,1.141-0.498,2.318-1.494,3.53
		c-1.617,1.616-3.595,2.426-5.934,2.426c-2.325,0-4.31-0.823-5.956-2.469c-0.376-0.361-0.809-0.889-1.299-1.581
		c-0.491-0.693-0.877-1.142-1.159-1.344c-0.282-0.201-0.639-0.303-1.072-0.303c-0.65,0-1.191,0.213-1.624,0.639
		c-0.434,0.427-0.65,0.965-0.65,1.613c0,0.478,0.115,0.881,0.346,1.213c0.578,1.055,1.282,2.007,2.112,2.859
		c0.83,0.852,1.743,1.567,2.74,2.144c0.996,0.578,2.05,1.015,3.162,1.311c1.111,0.296,2.245,0.443,3.4,0.443
		c0.967,0,1.935-0.114,2.902-0.346c0.967-0.23,1.895-0.56,2.783-0.984c0.888-0.428,1.714-0.95,2.48-1.571
		c0.765-0.621,1.429-1.317,1.992-2.09c0.563-0.772,1.004-1.621,1.321-2.544c0.318-0.926,0.477-1.906,0.477-2.946V64.52
		c0-3.35-1.184-6.209-3.552-8.577c-2.397-2.368-5.256-3.552-8.576-3.552c-3.35,0-6.209,1.184-8.577,3.552s-3.552,5.228-3.552,8.577
		c0,3.349,1.184,6.208,3.552,8.576s5.227,3.552,8.577,3.552c2.902,0,5.436-0.888,7.601-2.664V76.561z M99.064,57.524
		c0.924,0.405,1.729,0.953,2.415,1.646c0.685,0.692,1.227,1.497,1.624,2.414c0.397,0.918,0.595,1.896,0.595,2.936
		c0,1.039-0.198,2.017-0.595,2.934s-0.939,1.723-1.624,2.415c-0.686,0.693-1.491,1.242-2.415,1.646s-1.914,0.605-2.967,0.605
		c-1.069,0-2.065-0.201-2.989-0.605c-0.924-0.404-1.726-0.949-2.404-1.635c-0.679-0.687-1.217-1.491-1.614-2.415
		c-0.397-0.925-0.595-1.906-0.595-2.945c0-1.04,0.198-2.022,0.595-2.946s0.935-1.729,1.614-2.415
		c0.678-0.685,1.48-1.229,2.404-1.635c0.924-0.404,1.92-0.606,2.989-0.606C97.15,56.917,98.141,57.12,99.064,57.524 M60.243,55.943
		c-2.368,2.368-3.552,5.228-3.552,8.577c0,3.349,1.184,6.208,3.552,8.576c2.368,2.368,5.227,3.552,8.577,3.552
		c3.32,0,6.179-1.184,8.576-3.552c2.368-2.339,3.552-5.198,3.552-8.576V44.248c0-0.649-0.221-1.187-0.661-1.612
		c-0.44-0.427-0.978-0.64-1.613-0.64c-0.65,0-1.188,0.213-1.614,0.64c-0.426,0.426-0.639,0.963-0.639,1.612v10.808
		c-2.194-1.776-4.728-2.664-7.601-2.664C65.47,52.391,62.61,53.575,60.243,55.943 M75.826,67.454
		c-0.398,0.917-0.939,1.723-1.625,2.415c-0.685,0.693-1.491,1.242-2.414,1.646c-0.925,0.404-1.914,0.605-2.967,0.605
		c-1.069,0-2.065-0.201-2.989-0.605c-0.924-0.404-1.726-0.949-2.404-1.635c-0.679-0.687-1.217-1.491-1.614-2.415
		c-0.397-0.925-0.595-1.906-0.595-2.945c0-1.04,0.198-2.022,0.595-2.946s0.935-1.729,1.614-2.415
		c0.678-0.685,1.48-1.229,2.404-1.635c0.924-0.404,1.92-0.606,2.989-0.606c1.053,0,2.042,0.202,2.967,0.606
		c0.923,0.405,1.729,0.953,2.414,1.646c0.686,0.692,1.227,1.497,1.625,2.414c0.397,0.918,0.595,1.896,0.595,2.936
		C76.42,65.559,76.223,66.537,75.826,67.454 M49.5,75.987c0.44,0.441,0.971,0.661,1.592,0.661c0.62,0,1.151-0.22,1.591-0.661
		c0.441-0.439,0.668-0.978,0.683-1.613V54.665c-0.015-0.635-0.242-1.172-0.683-1.612c-0.44-0.44-0.971-0.661-1.591-0.661
		c-0.621,0-1.152,0.221-1.592,0.661c-0.441,0.44-0.661,0.978-0.661,1.612v19.709C48.838,75.009,49.059,75.547,49.5,75.987
		 M31.058,53.052c-0.441-0.44-0.971-0.661-1.592-0.661c-0.635,0-1.173,0.221-1.613,0.661c-0.441,0.44-0.661,0.971-0.661,1.592
		v19.751c0,0.621,0.22,1.152,0.661,1.592c0.44,0.441,0.978,0.661,1.613,0.661c0.621,0,1.151-0.22,1.592-0.661
		c0.44-0.439,0.66-0.971,0.66-1.592V64.52c0-1.054,0.199-2.043,0.596-2.967s0.938-1.729,1.624-2.415
		c0.686-0.687,1.491-1.228,2.415-1.625s1.913-0.596,2.967-0.596c1.069,0,2.058,0.182,2.967,0.541
		c0.361,0.159,0.679,0.238,0.953,0.238c0.318,0,0.614-0.057,0.888-0.173c0.274-0.115,0.513-0.278,0.715-0.487
		c0.202-0.209,0.364-0.45,0.487-0.726c0.123-0.274,0.184-0.57,0.184-0.888c0-0.62-0.202-1.126-0.606-1.517
		c-0.405-0.389-0.913-0.695-1.527-0.92c-0.614-0.224-1.285-0.379-2.014-0.466c-0.729-0.086-1.412-0.13-2.047-0.13
		c-1.444,0-2.801,0.23-4.071,0.692c-1.271,0.464-2.448,1.128-3.531,1.993v-0.433C31.717,54.023,31.498,53.493,31.058,53.052
		 M4.526,44.248c0-0.649-0.22-1.187-0.661-1.612c-0.44-0.427-0.978-0.64-1.613-0.64c-0.65,0-1.188,0.213-1.614,0.64
		C0.212,43.061,0,43.598,0,44.248V64.52c0,3.349,1.183,6.208,3.551,8.576c2.368,2.368,5.227,3.552,8.577,3.552
		c3.32,0,6.179-1.184,8.576-3.552c2.368-2.339,3.552-5.198,3.552-8.576c0-1.675-0.296-3.231-0.888-4.668
		c-0.592-1.437-1.48-2.739-2.664-3.909c-2.397-2.368-5.256-3.552-8.576-3.552c-2.917,0-5.451,0.896-7.602,2.686V44.248z
		 M9.14,71.515c-0.924-0.404-1.726-0.949-2.404-1.635c-0.679-0.687-1.217-1.491-1.613-2.415c-0.398-0.925-0.596-1.906-0.596-2.945
		c0-1.04,0.198-2.022,0.596-2.946c0.396-0.924,0.934-1.729,1.613-2.415c0.678-0.685,1.48-1.229,2.404-1.635
		c0.924-0.404,1.92-0.606,2.989-0.606c1.054,0,2.043,0.202,2.967,0.606c0.924,0.405,1.729,0.953,2.415,1.646
		c0.685,0.692,1.227,1.497,1.624,2.414c0.397,0.918,0.596,1.896,0.596,2.936c0,1.039-0.199,2.017-0.596,2.934
		c-0.397,0.917-0.939,1.723-1.624,2.415c-0.686,0.693-1.491,1.242-2.415,1.646c-0.924,0.404-1.913,0.605-2.967,0.605
		C11.06,72.121,10.063,71.919,9.14,71.515"/>
</g>
<path fill="#008A97" d="M238.674,54.514v0.943h1.416v3.713h1.024v-3.713h1.417v-0.943H238.674z M246.868,54.514l-1.224,1.969
	l-1.225-1.969h-1.104v4.656h1.004V56.15l1.298,1.969h0.026l1.31-1.989v3.041h1.019v-4.656H246.868z"/>
<g>
	<defs>
		<rect id="SVGID_3_" y="0" width="247.973" height="87.043"/>
	</defs>
	<clipPath id="SVGID_4_">
		<use xlink:href="#SVGID_3_"  overflow="visible"/>
	</clipPath>
	<path clip-path="url(#SVGID_4_)" fill="none" stroke="#008A97" stroke-width="4.3" stroke-linecap="round" d="M183.415,48.676
		c-6.328-26.296-32.296-46.525-65.263-46.525l-0.411-0.001c-32.726,0-60.346,19.951-66.513,46.424"/>
	<path clip-path="url(#SVGID_4_)" fill="none" stroke="#008A97" stroke-width="4.3" stroke-linecap="round" d="M64.548,46.433
		C69.444,22.406,90.727,4.3,117.08,4.3h0.553c26.353,0,47.438,18.361,52.461,42.227"/>
</g>
</svg>
