<?xml version="1.0" encoding="utf-8"?>
<!-- Generator: Adobe Illustrator 16.0.3, SVG Export Plug-In . SVG Version: 6.00 Build 0)  -->
<!DOCTYPE svg PUBLIC "-//W3C//DTD SVG 1.1//EN" "http://www.w3.org/Graphics/SVG/1.1/DTD/svg11.dtd">
<svg version="1.1" id="Layer_1" xmlns="http://www.w3.org/2000/svg" xmlns:xlink="http://www.w3.org/1999/xlink" x="0px" y="0px"
	 width="28.586px" height="33px" viewBox="0 0 28.586 33" enable-background="new 0 0 28.586 33" xml:space="preserve">
<g>
	<path d="M25.915,8.283V1.496C25.915,0.673,25.232,0,24.394,0h-2.838c-0.837,0-1.521,0.673-1.521,1.496v0.908L25.915,8.283z"/>
	<path d="M27.376,12.574L17.215,2.411c-1.614-1.613-4.231-1.613-5.843,0L1.21,12.574c-1.613,1.612-1.613,4.227,0,5.841h0.319
		c0,0.033-0.009,0.064-0.009,0.096v9.699C1.52,30.855,3.665,33,6.309,33h4.533v-8.223c0-0.703,0.541-1.277,1.203-1.277h4.82
		c0.663,0,1.205,0.574,1.205,1.277V33h4.324c2.646,0,4.791-2.145,4.791-4.789v-9.699c0-0.031-0.012-0.063-0.012-0.096h0.203
		C28.99,16.802,28.99,14.187,27.376,12.574z M14.129,10.094l-7.586,7.601c-0.391,0.391-1.023,0.391-1.415,0.002
		c-0.391-0.391-0.392-1.024-0.001-1.416l7.586-7.601c0.39-0.391,1.023-0.392,1.415-0.001S14.519,9.703,14.129,10.094z"/>
</g>
</svg>
